# xmcd
#
# Track frame offsets:
#	150
#	22932
#	46090
#	61627
#	76840
#	93662
#	110312
#	130320
#	150587
#	164215
#	180582
#
# Disc length: 2783 seconds
#
# Revision: 1
# Processed by: cddbd v1.5.1PL0 Copyright (c) Steve Scherf et al.
# Submitted via: CDex 1.50Beta5
#
DISCID=7e0add0b
DTITLE=Various Artist - 狼の宴
DYEAR=1900
DGENRE=
TTITLE0=鉄槌/士魂
TTITLE1=鉄槌/剣
TTITLE2=桜花/不動魂
TTITLE3=桜花/天空
TTITLE4=雷矢/終わりなき戦い
TTITLE5=雷矢/ライジング・サン
TTITLE6=グロウルストライク/命果てる迄
TTITLE7=グロウルストライク/最前線
TTITLE8=アグロナックル/UNマスク
TTITLE9=アグロナックル/スマッシュ・ザ・ウォール
TTITLE10=イースタンユース/生活無情
EXTD=
EXTT0=
EXTT1=
EXTT2=
EXTT3=
EXTT4=
EXTT5=
EXTT6=
EXTT7=
EXTT8=
EXTT9=
EXTT10=
PLAYORDER=
